{"asset":{"version":"2.0","generator":"THREE.GLTFExporter"},"scenes":[{"name":"AuxScene","nodes":[0]}],"scene":0,"nodes":[{"matrix":[0.6762137668775683,0,0.7367054645414609,0,0,1,0,0,-0.7367054645414609,0,0.6762137668775683,0,0,-0.4,0,1],"mesh":0}],"bufferViews":[{"buffer":0,"byteOffset":0,"byteLength":13068,"target":34962,"byteStride":12},{"buffer":0,"byteOffset":13068,"byteLength":13068,"target":34962,"byteStride":12},{"buffer":0,"byteOffset":26136,"byteLength":8712,"target":34962,"byteStride":8},{"buffer":0,"byteOffset":34848,"byteLength":11904,"target":34963}],"buffers":[{"byteLength":46752,"uri":"data:application/octet-stream;base64,"}],"accessors":[{"bufferView":0,"componentType":5126,"count":1089,"max":[1,1.399999976158142,1],"min":[-1,-1.399999976158142,-1],"type":"VEC3"},{"bufferView":1,"componentType":5126,"count":1089,"max":[1,1,1],"min":[-1,-1,-1],"type":"VEC3"},{"bufferView":2,"componentType":5126,"count":1089,"max":[1.015625,1],"min":[-0.015625,0],"type":"VEC2"},{"bufferView":3,"componentType":5123,"count":5952,"max":[1088],"min":[0],"type":"SCALAR"}],"meshes":[{"primitives":[{"mode":4,"attributes":{"POSITION":0,"NORMAL":1,"TEXCOORD_0":2},"indices":3}]}]}